<svg width="56" height="56" viewBox="0 0 56 56" fill="none" xmlns="http://www.w3.org/2000/svg">
<path d="M5.81492 39.007C5.81492 39.007 5.13936 40.4356 4.74934 40.4507C4.35932 40.4658 4.58331 39.2733 4.75292 38.6674C4.92252 38.0615 5.07996 37.6566 5.38125 37.1203C5.68325 36.5833 6.09474 36.9581 6.09474 36.9581L5.81492 39.007ZM10.7943 38.091C10.8888 37.3156 10.9739 37.3587 11.0677 37.0284C11.1614 36.6975 11.316 36.4096 10.8401 36.3558C10.3642 36.3019 10.4344 36.4814 10.2905 36.905C10.1467 37.3285 9.63499 39.0939 8.98734 39.119C8.69894 39.1305 8.58086 38.5325 8.87141 37.167C9.16124 35.8015 8.95513 35.9121 8.62093 35.9329C8.28602 35.9537 8.26956 36.0672 8.25023 36.2028C8.23091 36.3385 8.06775 37.5102 8.00119 38.1879C8.00119 38.1879 7.26981 39.6381 6.88623 39.6531C6.50336 39.6682 6.42321 38.6624 6.64649 37.6939C6.70589 37.4355 7.14314 35.4304 7.32491 34.6529C7.32491 34.6529 7.49094 34.0549 6.98141 34.075C6.77244 34.0829 6.615 34.0994 6.56491 34.2946C6.51482 34.4899 6.21711 36.4218 6.21711 36.4218C6.13338 36.3005 5.94302 36.0607 5.45424 36.289C5.14723 36.4319 4.69352 36.943 4.34143 37.9222C3.99005 38.9015 3.20428 41.1004 4.64414 41.0437C5.06207 41.0272 5.54155 40.5735 5.9831 39.7192C5.9831 39.7192 6.34378 40.2712 6.91987 40.2483C7.49595 40.226 8.08421 39.0113 8.08421 39.0113C8.08421 39.0113 8.32967 39.862 8.97374 39.8369C9.6171 39.8118 10.0951 38.7206 10.0951 38.7206C10.0951 38.7206 10.1445 39.399 10.5417 39.7185C10.9382 40.0379 11.1736 39.7278 11.1736 39.7278C11.1736 39.7278 10.7006 38.8656 10.7943 38.091Z" fill="#EA5403"/>
<path d="M24.2447 18.2104C24.2289 17.8241 24.898 16.6568 25.3002 16.7846C25.5256 16.898 24.5746 18.158 24.2447 18.2104ZM18.2197 19.5184C17.9349 20.3483 17.6043 20.802 17.1198 20.802C16.5473 20.802 16.8564 19.4115 16.9745 19.0625C17.1985 18.4014 17.5792 18.196 17.8096 18.2176C18.5281 18.2176 18.4151 18.9498 18.2197 19.5184ZM24.6053 18.677C24.9216 18.5105 25.3947 18.0029 25.5951 17.7251C25.7718 17.4803 26.4002 16.2153 25.3253 16.2153C25.0068 16.1995 24.7642 16.3826 24.5302 16.5721C24.1652 16.4149 24.0099 16.4888 23.9162 16.7566C23.8539 16.9354 23.7967 17.1062 23.7337 17.2943C23.4424 18.1673 22.613 19.909 22.0197 19.909C21.6977 19.909 22.1135 18.471 22.3303 18.0058C22.4606 17.7272 22.8155 16.8219 22.2323 16.7782C22.0663 16.7774 22.0355 16.8973 21.9775 17.0215C21.7686 17.4702 21.5589 17.9203 21.3163 18.3518C21.1324 18.6785 20.1484 20.3153 19.7791 20.3153C19.6109 20.3153 19.885 18.901 20.0281 18.2111C20.1111 17.8629 20.421 16.715 19.8535 16.715C19.4535 16.669 17.8132 17.6526 17.6293 17.6899C17.001 17.8227 16.5222 18.4552 16.3354 18.8666C16.1451 19.3777 16.0499 19.9054 16.1279 20.4503C16.2317 21.1732 16.7884 21.3232 17.1906 21.3232C18.0086 21.3232 18.6054 20.5257 18.9511 19.5701C19.2402 18.7696 19.0527 18.181 18.6198 17.8658C18.9998 17.6475 19.2288 17.5147 19.5486 17.262C19.4356 17.6992 19.281 18.4207 19.1593 19.3124C19.1007 19.713 19.0785 20.1925 19.1207 20.5055C19.1751 20.9119 19.3697 21.0641 19.7784 21.0871C20.3681 21.0871 21.0973 19.8013 21.264 19.5385C21.307 19.741 21.4 20.4682 21.8437 20.4682C22.1378 20.4682 22.6352 20.2974 23.0631 19.6577C22.9615 19.9714 22.9307 20.1531 22.9436 20.2528C23.041 20.4826 23.5698 20.4725 23.6213 20.1854C23.69 19.7352 23.8432 19.3117 24.0056 18.8515C24.4436 19.3892 25.8906 20.2844 26.242 20.2844C26.4968 20.26 26.5776 19.9879 26.4739 19.9047C26.2119 19.7704 25.2322 19.4057 24.6053 18.677Z" fill="#EA5403"/>
<path d="M15.2242 18.2349C15.285 17.9262 15.3165 17.6706 15.3881 17.4265C15.5148 16.9943 15.6801 16.0632 15.8304 15.6382C15.9234 15.3754 16.5832 15.453 16.4122 16.387C16.2791 17.1121 15.7645 17.8881 15.2242 18.2349ZM16.5353 17.8486C16.7757 17.4832 17.0849 16.9872 17.0849 16.1235C17.0849 15.1235 16.0637 14.5254 15.2843 15.1543C15.0603 15.6468 14.9601 16.1199 14.8485 16.593C14.6553 17.4136 14.4871 18.2406 14.3275 19.0684C14.1865 19.7992 14.0685 20.5344 13.9447 21.2681C13.9089 21.4827 13.989 21.5811 14.2273 21.6478C14.4062 21.6981 14.5444 21.6256 14.6066 21.421C14.6911 21.1417 14.9995 19.3376 15.0603 19.087C15.0746 19.0289 15.1276 18.9672 15.1798 18.9341C15.3623 18.8164 15.5591 18.7195 15.7388 18.5974C16.0436 18.3914 16.3335 18.1552 16.5353 17.8486Z" fill="#EA5403"/>
<path d="M36.6171 16.1156C36.8812 15.674 37.1689 15.4594 37.4215 15.5111C37.6734 15.562 37.4437 16.1909 37.1689 16.5097C36.8934 16.8277 36.5062 17.0295 36.2894 17.0553C36.2887 17.0546 36.3531 16.5571 36.6171 16.1156ZM39.0524 17.0847C38.7533 17.0847 37.9704 18.6311 36.9313 18.6311C36.5635 18.6311 36.2092 18.5428 36.2536 17.7215C36.2536 17.7215 38.1257 17.1472 38.1257 15.9375C38.1257 15.5319 37.9611 15.0078 37.3807 15.0078C36.8003 15.0078 35.8621 15.4895 35.5566 17.4265C35.5566 17.4265 34.9161 18.4186 34.6348 18.4186C34.3536 18.4186 34.4115 17.7265 34.5711 17.0926C34.7314 16.4587 34.8524 15.8844 34.3779 15.8844C33.9042 15.8844 33.7102 16.2383 33.5163 16.6447C33.3231 17.051 32.9817 17.9204 32.9817 17.9204C32.9817 17.9204 33.1391 17.1142 33.5013 16.0452C33.648 15.6116 33.6608 15.2454 33.3116 15.2454C32.9617 15.2454 32.9094 15.4601 32.7284 16.0344C32.5473 16.6088 32.2933 17.6253 32.2933 17.6253C32.2933 17.6253 31.7036 18.8264 31.1311 18.8264C30.5586 18.8264 30.9164 17.6871 31.028 17.2757C31.1397 16.8636 31.4932 16.0301 30.9994 16.0301C30.5056 16.0301 30.4884 16.6159 30.3503 17.0553C30.2122 17.4947 29.4164 19.4093 28.9448 19.4093C28.7895 19.4093 28.846 18.5177 29.1666 17.2463C29.4873 15.9748 29.669 15.6748 29.2182 15.59C29.2182 15.59 28.8811 15.4881 28.7344 16.1479C28.587 16.8069 27.4863 19.988 28.9384 19.988C29.3083 19.988 29.6511 19.713 30.2279 18.8156C30.2279 18.8156 30.4269 19.55 31.1039 19.55C31.5082 19.55 31.9812 18.9614 32.1888 18.7273C32.1888 18.7273 32.1065 19.5486 32.8021 19.5486C33.0747 19.5486 33.6537 17.9771 33.7968 17.5478C33.8762 17.3094 33.8412 17.3532 33.8941 17.3532C33.9471 17.3532 33.4447 18.8932 34.5625 18.8932C34.959 18.8932 35.2574 18.6426 35.6403 18.232C35.6403 18.232 35.7949 19.1358 36.8247 19.1358C37.8545 19.1358 39.1083 17.7775 39.212 17.5521C39.3165 17.3245 39.2557 17.0847 39.0524 17.0847Z" fill="#EA5403"/>
<path d="M17.758 32.7094C17.5848 32.7532 17.1189 32.9327 17.0602 33.2363C17.0016 33.54 16.2394 41.6007 15.8021 41.6503C15.5259 41.6819 14.5426 36.1202 14.1483 34.0526C14.1483 34.0526 12.9604 32.9549 12.6025 34.1754C12.6025 34.1754 14.1226 41.3365 14.801 43.4415C14.801 43.4415 16.1643 44.5916 16.9908 42.9662C16.9908 42.9662 17.2792 41.6919 17.6871 38.9035C18.0943 36.1152 18.43 33.6958 18.43 33.6958C18.43 33.6958 18.508 32.5199 17.758 32.7094Z" fill="#EA5403"/>
<path d="M27.8837 31.5176C27.4894 33.6843 26.2513 40.5001 25.9758 40.5382C25.5385 40.5985 24.7771 32.7302 24.7177 32.4416C24.659 32.153 24.1931 32.0912 24.0199 32.0912C23.2707 32.0905 23.348 33.2478 23.348 33.2478C23.348 33.2478 23.6836 35.5831 24.0908 38.2688C24.498 40.9546 24.7871 42.1556 24.7871 42.1556C25.6144 43.5721 26.977 42.0781 26.977 42.0781C27.6554 39.8023 29.4295 31.2513 29.4295 31.2513C29.0716 30.1206 27.8837 31.5176 27.8837 31.5176Z" fill="#EA5403"/>
<path d="M21.5152 34.5445C21.448 33.3018 20.0625 34.304 20.0625 34.304C20.0625 34.304 20.2071 40.6202 20.2249 41.9254C20.2428 43.2312 20.4196 43.3002 20.8583 43.2506C21.2977 43.2011 21.7879 43.1566 21.7507 42.2635C21.7135 41.3704 21.5832 35.7872 21.5152 34.5445Z" fill="#EA5403"/>
<path d="M19.7276 32.0052C19.7276 32.0052 20.061 33.2257 21.0515 33.1137C22.0412 33.0017 22.0884 32.4008 21.6877 31.955C21.2862 31.5084 19.681 31.1983 19.7276 32.0052Z" fill="#EA5403"/>
<path d="M32.1303 36.1964C32.5082 34.9063 32.9447 33.5839 33.3991 32.553C33.3991 32.553 33.6975 34.1891 34.021 35.9896C33.2639 36.1411 32.6062 36.1878 32.1303 36.1964ZM33.4471 30.2585C33.1 30.2585 32.5955 30.3835 31.8934 32.3096C31.1914 34.2358 29.408 40.1499 29.2513 40.6123C29.0946 41.0739 30.6511 41.8794 30.9087 40.8872C30.9996 40.5362 31.3123 39.1685 31.7524 37.5425C32.4531 37.5374 33.5086 37.3924 34.2514 37.2754C34.5198 38.7823 34.761 40.16 34.8125 40.5419C34.9399 41.4852 35.7486 41.3725 36.1608 41.2648C36.573 41.1572 36.608 40.8578 36.608 40.8578C36.608 40.8578 34.942 32.8157 34.7202 31.5673C34.4976 30.3174 33.8199 30.2585 33.4471 30.2585Z" fill="#EA5403"/>
<path d="M44.2598 30.2003C44.043 31.046 43.8039 37.088 43.8039 37.088C43.8039 37.088 41.3107 32.2859 40.2558 30.4487C39.9345 29.8888 39.5488 29.6763 38.9197 29.6763C37.7726 29.6763 37.8699 30.3533 37.8098 31.527C37.7497 32.7008 37.4484 39.526 37.5013 39.9625C37.5543 40.3997 38.5054 41.2368 38.8525 40.6072C39.2668 39.8555 39.2038 33.5293 39.2668 31.9901C39.2668 31.9901 39.2961 31.7094 39.5244 32.0856C39.7527 32.4618 42.7069 39.8404 44.501 39.8404C45.0213 39.8404 45.1572 39.7055 45.2016 38.0177C45.246 36.3306 45.5415 31.4768 45.7977 30.3037C45.7977 30.3044 44.4766 29.3554 44.2598 30.2003Z" fill="#EA5403"/>
<path d="M53.1618 29.2799C53.1618 29.2799 51.7656 29.1133 49.6523 29.1471C47.539 29.1808 46.1636 29.445 46.1636 29.445C46.1636 29.445 46.0627 30.8442 46.8291 30.8327C47.1218 30.8284 47.884 30.7976 48.8078 30.7394C48.8171 31.6102 48.8443 33.2435 48.9266 34.8265C49.0461 37.1374 49.0998 38.4031 49.1649 38.7204C49.2308 39.0378 49.9006 40.0213 50.5955 39.1684C50.5955 39.1684 50.6198 35.7354 50.5683 33.7403C50.5361 32.4997 50.5275 31.3116 50.5254 30.5894C51.5044 30.4953 52.6379 30.374 53.2677 30.2211C53.2677 30.2225 53.8109 29.8808 53.1618 29.2799Z" fill="#EA5403"/>
<path d="M2.5219 29.2656C2.83392 28.2304 3.14809 27.2347 3.37065 26.6417C3.38711 26.6115 3.41788 26.5778 3.42933 26.5756C3.43005 26.5756 3.4873 26.6015 3.52666 26.9001C3.55886 27.1485 3.70485 27.9935 3.87016 28.9304C3.36421 29.0416 2.90048 29.1608 2.5219 29.2656ZM6.19455 28.5764L6.14517 28.58C5.84246 28.6016 5.53259 28.6367 5.22272 28.682C5.15545 28.3201 5.09533 27.9583 5.0481 27.6087C4.75898 25.4758 4.48847 24.5267 4.48561 24.5174L4.48132 24.503L4.4713 24.4915C4.46486 24.485 3.84583 23.8382 3.09584 24.1878L3.07366 24.1979L3.06436 24.2201C3.05434 24.2445 2.05173 26.656 1.44773 28.5046C0.844451 30.3518 0.0171753 32.7841 0.00930328 32.8085L0 32.8344L0.0135971 32.8588C0.0164596 32.8638 0.250473 33.2816 0.801513 33.2816C0.963247 33.2816 1.15146 33.2457 1.36973 33.1531L1.39764 33.1409L1.40551 33.1115C1.41124 33.0899 1.67817 32.1351 2.02668 30.9362C2.62567 30.5665 3.38138 30.303 4.07913 30.1113C4.26519 31.1516 4.42621 32.0411 4.43051 32.0612L4.43766 32.0806C4.44911 32.1021 4.73322 32.614 5.22415 32.7066C5.50396 32.7597 5.79165 32.6635 6.07719 32.4223L6.10867 32.3957L6.09722 32.3555C6.09221 32.3383 5.75801 31.1846 5.44957 29.789C5.6886 29.7387 5.86178 29.7014 5.95911 29.6705C6.07361 29.6346 6.15948 29.5621 6.2153 29.4552C6.37561 29.1443 6.21674 28.6432 6.21029 28.6224L6.19455 28.5764Z" fill="#EA5403"/>
<path d="M11.4442 27.5047C10.6362 27.6382 10.1503 27.7409 9.67941 27.8399L9.37813 27.9031L9.36954 27.944C9.36525 27.9634 9.27508 28.4337 9.48834 28.7445C9.58209 28.8816 9.72021 28.9663 9.89768 28.9958L9.90985 28.9979L11.14 28.7194C11.1121 29.153 10.9074 31.156 9.51625 31.156C8.84713 31.156 8.23526 30.3498 8.23526 28.2693C8.23526 26.715 9.04321 24.8821 10.3213 24.8821C10.9905 24.8821 11.1966 25.0494 11.4485 25.2576C11.4871 25.2892 11.5494 25.2792 11.6317 25.2368C11.8134 25.1427 12.0718 24.8943 12.0775 24.6352C12.0797 24.5253 11.6345 23.6775 10.3092 23.6775C7.55397 23.6775 6.82617 27.2204 6.82617 28.5349C6.82617 31.9751 8.65462 32.3527 9.41177 32.3527C10.5389 32.3527 12.0732 31.6398 12.4589 28.8271C12.4997 28.5291 12.5226 27.9842 12.2156 27.6834C12.0374 27.5104 11.7777 27.4494 11.4442 27.5047Z" fill="#EA5403"/>
<path d="M14.5603 27.4012L14.7807 24.6387C14.8795 24.6078 15.1593 24.5411 15.3518 24.6861C15.5214 24.8139 15.5908 25.0773 15.5557 25.47C15.4699 26.455 14.8265 27.1528 14.5603 27.4012ZM18.0497 29.359L18.0068 29.3582C17.3069 29.3446 15.837 28.4551 15.5293 28.2642C16.4109 27.0459 17.0206 26.0882 16.8925 24.9531C16.8331 24.4226 16.6507 23.9947 16.3651 23.7176C16.1039 23.4642 15.7661 23.3472 15.414 23.3867C14.8473 23.4506 14.5038 23.686 14.4107 23.7578C14.0808 23.6867 13.816 23.7298 13.6235 23.8856C13.3101 24.139 13.3122 24.5963 13.3129 24.61C13.3086 24.6667 12.9036 30.2973 12.8735 30.6864C12.8614 30.8501 12.8714 31.1552 13.0804 31.3569C13.2063 31.479 13.3809 31.5407 13.5999 31.5407C13.6479 31.5407 13.6979 31.5378 13.7509 31.5314C14.4064 31.4574 14.4093 30.975 14.4114 30.7158C14.4114 30.6828 14.4121 30.6534 14.4136 30.6275C14.425 30.4358 14.4501 29.1235 14.4587 28.6676C14.8952 29.1127 16.5304 30.7065 17.3842 30.5249C17.6955 30.4581 17.9116 30.3174 18.0261 30.1077C18.2036 29.7833 18.0705 29.4157 18.0648 29.3999L18.0497 29.359Z" fill="#EA5403"/>
<path d="M19.1043 24.1655C18.9118 24.1885 18.7543 24.3163 18.6355 24.546L18.6305 24.5589C18.6284 24.5683 18.3815 25.5051 18.3672 26.8907C18.3529 28.2691 18.3693 29.9174 18.3693 29.9354V29.9526C18.3708 30.061 18.375 30.3496 18.6026 30.5004C18.6914 30.5592 18.803 30.5887 18.9375 30.5887C19.1157 30.5887 19.3319 30.537 19.5866 30.4329L19.6267 30.4164L19.626 30.3726C19.6253 30.3496 19.5766 28.0587 19.6789 26.8555C19.7806 25.6537 19.9852 24.686 19.9874 24.6767L19.9938 24.6458L19.9731 24.6221C19.9552 24.6013 19.5265 24.1153 19.1043 24.1655Z" fill="#EA5403"/>
<path d="M19.3005 21.996L19.2883 21.9917L19.2754 21.9924C19.2575 21.9939 18.8389 22.0312 18.645 22.2674C18.5684 22.3607 18.5369 22.4713 18.5512 22.5962C18.5949 22.9824 18.9248 23.2035 19.4443 23.2035C19.4937 23.2035 19.5452 23.2014 19.5982 23.1971C19.8222 23.1798 20.0734 23.0104 20.1049 22.7556C20.1263 22.5811 20.0512 22.248 19.3005 21.996Z" fill="#EA5403"/>
<path d="M29.5774 21.7999C29.1623 21.8473 29.0843 22.0519 29.0042 22.3836L28.987 22.4576C28.2614 25.5503 27.5593 27.4277 27.1085 27.4786L27.0899 27.4808C27.0269 27.4894 26.9746 27.4923 26.9274 27.442C26.8122 27.3207 26.7242 26.9057 26.961 25.6192C27.0405 25.1871 27.1192 24.813 27.1886 24.4835C27.3818 23.5667 27.4885 23.062 27.2881 22.8144C27.1993 22.7045 27.0577 22.6528 26.8437 22.6528C26.4179 22.6528 26.1653 22.8653 26.1545 22.8747L26.1373 22.8897L26.1338 22.9127C26.1237 22.973 25.0803 28.9518 22.874 28.9518C22.5906 28.9518 22.3609 28.8305 22.1913 28.5921C21.6854 27.8807 21.8128 26.3013 22.0947 25.4807C22.343 24.757 23.0923 23.0872 24.7068 23.2257L24.7562 23.23L24.7719 23.1834C24.7783 23.1661 24.9143 22.7627 24.6789 22.459C24.4871 22.2127 24.1135 22.1122 23.5653 22.1611C22.6858 22.24 21.7398 23.1252 21.1558 24.4175C20.5926 25.663 20.4344 27.0587 20.5282 27.8886C20.6019 28.5419 20.7586 29.0451 21.0091 29.427C21.354 29.9547 21.8628 30.2211 22.5219 30.2211C22.62 30.2211 22.7223 30.2153 22.8282 30.2031C24.3454 30.0315 25.3401 28.4859 25.6378 27.9589C25.6829 28.1872 25.801 28.5598 26.1073 28.8096C26.3756 29.0286 26.7306 29.1047 27.1621 29.0365C28.0796 28.8908 28.4796 27.8706 28.627 27.3422C28.7143 27.7888 28.9147 28.5304 29.2768 28.5304H29.2904C29.4472 28.5318 29.9195 28.5318 30.0819 28.2533C30.1764 28.0917 30.1463 27.8699 29.9918 27.5964C29.5338 26.7815 29.6067 25.4649 30.253 22.8962C30.258 22.8704 30.3718 22.263 30.0934 21.96C29.9696 21.8287 29.7964 21.7748 29.5774 21.7999Z" fill="#EA5403"/>
<path d="M35.238 26.9282L35.2194 26.9253L35.2022 26.9325C35.18 26.9418 33.0296 27.8694 32.1958 27.8184C32.213 27.4501 32.339 25.4206 33.0245 22.9768C33.0367 22.9424 33.3079 22.1304 32.9916 21.6896C32.8628 21.5101 32.6567 21.4189 32.3797 21.4189C32.3769 21.4189 32.3733 21.4189 32.3704 21.4189C32.339 21.4197 31.7972 21.4383 31.6562 22.2036C31.4816 23.1534 31.297 24.058 31.1489 24.7838C31.0036 25.4967 30.8891 26.0595 30.8418 26.3754C30.8318 26.4443 30.8139 26.5326 30.7932 26.636C30.6722 27.2391 30.4697 28.2484 30.9843 28.7617C31.1846 28.962 31.4745 29.0618 31.8509 29.0618C32.0262 29.0618 32.2202 29.0403 32.432 28.9965C34.7814 28.5133 35.9694 27.8019 35.9808 27.7947L36.0052 27.7796L36.0102 27.7509C36.0123 27.7416 36.051 27.5104 35.8964 27.2886C35.7676 27.1041 35.5457 26.9828 35.238 26.9282Z" fill="#EA5403"/>
<path d="M40.6027 21.5121C40.5032 21.4066 40.3479 21.3822 40.1426 21.4389C40.0767 21.4576 39.6638 21.5093 39.2251 21.5638C38.6283 21.6385 37.8862 21.7318 37.499 21.8029C36.822 21.9271 34.62 22.1769 34.5978 22.1791L34.5434 22.1855L34.5413 22.2401C34.5406 22.2595 34.527 22.7118 34.8497 23.0133C35.0315 23.1827 35.2805 23.2682 35.5925 23.2682C35.6627 23.2682 35.7357 23.2639 35.8122 23.2552C36.0334 23.2301 36.3289 23.1892 36.6638 23.1389C36.6002 23.8073 36.4799 25.0766 36.4227 25.722C36.3425 26.6222 36.4148 27.9145 36.4155 27.9274L36.417 27.9576L36.4413 27.9748C36.457 27.9863 36.7741 28.211 37.0954 28.211C37.1584 28.211 37.2213 28.2024 37.2822 28.1823C37.4625 28.122 37.592 27.9698 37.6665 27.7314L37.6693 27.7135C37.67 27.6855 37.7123 25.1161 37.9749 22.9307C39.2623 22.7182 40.5519 22.4878 40.5734 22.4835L40.6099 22.477L40.622 22.4411C40.6464 22.3722 40.8403 21.7634 40.6027 21.5121Z" fill="#EA5403"/>
<path d="M45.1005 20.3648C45.0819 20.3555 44.6518 20.1315 44.3212 20.2923C44.1501 20.3756 44.0399 20.5443 43.9948 20.7934L43.9576 20.9987C43.101 25.7944 42.5378 26.5102 42.278 26.5102C42.2193 26.5102 42.1735 26.4893 42.1349 26.4448C41.9145 26.1936 41.928 25.2172 42.1771 23.2788C42.2129 22.9981 42.2551 22.7461 42.2916 22.5229C42.3982 21.8803 42.4626 21.4919 42.2551 21.3125C42.0926 21.171 41.7921 21.189 41.2181 21.3728L41.1859 21.3828L41.1766 21.4158C41.1716 21.4324 40.7014 23.1173 40.6943 24.8503L40.6936 24.9839C40.6878 26.2007 40.6828 27.2518 41.1895 27.7622C41.4056 27.9797 41.6962 28.0853 42.0783 28.0853C43.1554 28.0853 44.1272 26.3156 44.8887 22.9665C44.9044 22.8976 44.9166 22.8445 44.9244 22.8115C45.0067 22.4798 45.3044 20.4926 45.1005 20.3648Z" fill="#EA5403"/>
<path d="M47.2217 23.8289L47.6804 20.7899C47.7427 20.754 47.9223 20.6643 48.0655 20.7483C48.2014 20.828 48.3503 21.0893 48.2816 21.8826C48.1656 23.243 47.4786 23.7032 47.2217 23.8289ZM55.8065 19.2292L55.7858 19.2077L55.7564 19.2098C55.7464 19.2105 54.7252 19.2838 53.397 19.553C53.4428 19.3276 53.4034 19.1186 53.2882 18.9858C53.2145 18.9011 53.0735 18.8064 52.8252 18.8344C52.3779 18.8853 52.0451 19.0634 52.0315 19.0713L52.0079 19.0842L52.0007 19.1107C52 19.1143 51.8977 19.4948 51.7624 20.0412C51.4003 20.2486 51.0404 20.5214 51.0368 20.5236L51.0117 20.543V20.5746C51.0117 20.5796 51.0196 21.0541 51.4926 21.1726C51.215 22.3923 51.0597 23.2782 51.0303 23.8059C51.0017 24.3242 50.9924 24.867 51.0633 25.3508C50.5272 25.475 49.3278 25.6035 48.1699 24.704C48.5063 24.4384 49.9934 23.1605 49.8037 21.4777C49.71 20.6435 49.4738 20.0577 49.1017 19.7346C48.7825 19.4582 48.4261 19.4331 48.1835 19.4604C47.7491 19.5099 47.1187 19.8653 47.002 19.9328C46.9283 19.927 46.69 19.9241 46.481 20.0842C46.3014 20.2221 46.1919 20.4403 46.1547 20.7354C46.1211 21.006 46.0359 21.5933 45.9379 22.2739C45.7289 23.7183 45.4441 25.6961 45.3954 26.3538L45.3911 26.4105C45.341 27.0781 45.3052 27.5606 45.5443 27.791C45.638 27.8815 45.7683 27.926 45.9393 27.926C45.9808 27.926 46.0252 27.9231 46.0717 27.9181C46.7487 27.8413 46.7737 27.5936 46.8424 26.931C46.8546 26.8132 46.8682 26.6811 46.8868 26.5325C46.9619 25.9424 47.0013 25.6739 47.0206 25.5547C47.47 25.8548 49.6764 27.2181 51.4912 26.4485C51.5213 26.4837 51.5528 26.5182 51.5864 26.5505C51.8247 26.7766 52.141 26.8908 52.5275 26.8908C52.6076 26.8908 52.6899 26.8857 52.7758 26.8764C53.5687 26.7867 54.6164 25.5088 54.6264 25.4959C54.7223 25.3745 54.7195 25.1591 54.6178 24.9466C54.5269 24.7564 54.338 24.5525 54.0825 24.5525H54.0539L54.0346 24.5741C53.7727 24.8698 53.0148 25.6423 52.6334 25.6983C52.5482 25.615 52.3736 24.8303 52.531 23.434C53.5737 23.5826 54.9442 23.0248 55.2183 22.7297C55.2948 22.6472 55.3277 22.5531 55.3156 22.4483C55.2841 22.164 54.9177 21.9113 54.9019 21.9013L54.8733 21.8819L54.8411 21.8955C54.0081 22.2581 53.1687 22.3579 52.6971 22.3844C52.7708 22.0212 52.8617 21.6514 52.9683 21.2839C52.9898 21.2085 53.0212 21.0886 53.057 20.9457C54.1885 20.683 55.6462 20.314 55.6612 20.3104L55.6755 20.3068L55.687 20.2967C55.6992 20.286 55.9854 20.0297 55.999 19.6973C56.0062 19.5264 55.941 19.3692 55.8065 19.2292Z" fill="#EA5403"/>
<path d="M50.527 44.4423C50.527 44.4423 50.4132 44.596 50.2006 44.8838C45.5605 51.1153 38.0234 56 27.628 56C23.4573 56 13.7633 54.5778 6.69137 45.6649C6.45235 45.3641 6.49958 44.9808 6.77438 44.7517C7.03416 44.5342 7.41416 44.5565 7.64746 44.7941L7.67608 44.8235C7.67608 44.8235 7.80633 44.9571 8.05108 45.2069C15.4207 52.913 24.1107 53.5742 27.5994 53.5742C32.4908 53.5742 41.6466 51.956 48.3092 43.415C48.5346 43.1364 48.6541 42.9878 48.6541 42.9878C49.0656 42.4781 49.8113 42.3991 50.3194 42.8119C50.8147 43.214 50.9005 43.934 50.527 44.4423Z" fill="#EA5403"/>
<path d="M35.3634 49.8811C32.3892 51.3823 28.9885 51.4469 28.0367 51.4469C23.3422 51.4469 19.2752 49.4985 17.4997 47.83C17.3551 47.6944 17.2814 47.4603 17.4432 47.26C17.5663 47.1078 17.7767 47.0705 17.9427 47.1581L17.9591 47.1667C17.9591 47.1667 18.0207 47.199 18.1352 47.2593C18.1967 47.2909 21.9581 49.594 27.4778 49.594C31.1512 49.594 34.4388 48.3455 34.4674 48.334C34.5912 48.2859 34.6571 48.2601 34.6571 48.2601C35.1115 48.0827 35.6225 48.3082 35.7992 48.764C35.9681 49.1955 35.7806 49.6708 35.3634 49.8811Z" fill="#EA5403"/>
<path d="M1.788 21.2027C1.788 21.2027 1.84739 20.9981 1.95903 20.6154C6.58133 6.27228 18.8674 2.10767 26.8718 2.10767C28.3038 2.10767 38.8794 2.10336 46.3736 11.256C46.6326 11.569 46.7708 11.7363 46.7708 11.7363C46.9389 11.9395 46.9103 12.2403 46.7085 12.4083C46.5181 12.5662 46.2419 12.5511 46.0702 12.3803L46.0494 12.3594C46.0494 12.3594 45.902 12.2116 45.6257 11.9344C41.7277 8.29607 36.9086 4.37555 26.9312 4.37555C16.5516 4.37555 7.34277 12.2927 4.53962 21.0591C4.50241 21.1761 4.46806 21.2824 4.438 21.3771C4.31634 21.7569 4.25193 21.9601 4.25193 21.9601C4.03438 22.64 3.30944 23.014 2.63173 22.7957C1.96476 22.5818 1.59334 21.8725 1.788 21.2027Z" fill="#EA5403"/>
<path d="M35.48 0.0128759C35.48 0.0128759 35.5687 0.027952 35.7362 0.0566685C44.5199 1.77894 50.864 8.72905 52.5923 14.8787C52.6431 15.0452 52.6695 15.1343 52.6695 15.1343C52.7368 15.3568 52.6116 15.593 52.3897 15.6612C52.1894 15.7222 51.9782 15.626 51.8895 15.443L51.8816 15.4257C51.8816 15.4257 51.843 15.3453 51.7693 15.196C49.8242 10.7665 43.7849 3.81638 35.3712 1.88232C35.2059 1.84355 35.1178 1.82273 35.1178 1.82273C34.6226 1.70787 34.3142 1.21107 34.4294 0.714276C34.5389 0.236147 35.0048 -0.0675303 35.48 0.0128759Z" fill="#EA5403"/>
</svg>
