<svg width="166" height="90" viewBox="0 0 166 90" fill="none" xmlns="http://www.w3.org/2000/svg">
<path opacity="0.9" fill-rule="evenodd" clip-rule="evenodd" d="M160.824 8.0843C165.574 2.50509 172.64 -0.718745 179.917 0.136559C188.549 1.16292 193.838 5.6105 195.799 12.2819C202.365 34.4671 193.009 59.2972 177.89 75.3375C153.902 100.799 104.966 86.667 77.1749 75.6401C62.8716 69.9688 27.9357 53.8101 37.3703 31.9538C44.3455 15.8048 70.0427 18.6808 87.5817 20.6438C91.3506 21.0656 94.7429 21.4453 97.4916 21.5849C99.1675 21.6699 100.868 21.7658 102.586 21.8627C123.474 23.0403 146.963 24.3646 160.824 8.0843ZM36.0018 72.1133C37.5414 64.7971 34.186 50.7043 24.6329 51.5728C9.64534 53.415 -10.5135 70.0474 6.46098 82.4164C17.001 90.1009 33.4754 84.127 36.0018 72.1133Z" fill="#E2EEF4"/>
</svg>
